<?xml version="1.0"?>
<svg xmlns:rdf="http://www.w3.org/1999/02/22-rdf-syntax-ns#" xmlns="http://www.w3.org/2000/svg" xmlns:cc="http://web.resource.org/cc/" xmlns:xlink="http://www.w3.org/1999/xlink" xmlns:dc="http://purl.org/dc/elements/1.1/" id="svg2" viewBox="0 0 472.1 287.86" version="1.0">
 <defs id="defs4">
  <linearGradient id="linearGradient11935">
   <stop id="stop11937" offset="0"/>
   <stop id="stop11947" stop-color="#fff" offset=".5"/>
   <stop id="stop11939" offset="1"/>
  </linearGradient>
  <linearGradient id="linearGradient8367">
   <stop id="stop8369" stop-color="#484848" offset="0"/>
   <stop id="stop8371" stop-color="#1c1c1c" offset="1"/>
  </linearGradient>
  <linearGradient id="linearGradient7471">
   <stop id="stop7473" stop-color="#333" offset="0"/>
   <stop id="stop7475" stop-color="#7f7f7f" offset="1"/>
  </linearGradient>
  <linearGradient id="linearGradient4585">
   <stop id="stop4587" stop-color="#343434" stop-opacity=".84694" offset="0"/>
   <stop id="stop4589" stop-color="#0c0c0c" offset="1"/>
  </linearGradient>
  <linearGradient id="linearGradient4579">
   <stop id="stop4581" stop-opacity=".43878" offset="0"/>
   <stop id="stop4583" stop-color="#bbb" stop-opacity=".18367" offset="1"/>
  </linearGradient>
  <linearGradient id="linearGradient2058" x1="246.65" xlink:href="#linearGradient7471" gradientUnits="userSpaceOnUse" y1="345.07" gradientTransform="translate(-100)" x2="358.75" y2="345.07"/>
  <linearGradient id="linearGradient2060" x1="246.65" xlink:href="#linearGradient11935" gradientUnits="userSpaceOnUse" y1="345.07" gradientTransform="translate(-100)" x2="358.75" y2="345.07"/>
  <linearGradient id="linearGradient2062" x1="246.65" xlink:href="#linearGradient7471" gradientUnits="userSpaceOnUse" y1="345.07" gradientTransform="translate(260)" x2="358.75" y2="345.07"/>
  <linearGradient id="linearGradient2064" x1="246.65" xlink:href="#linearGradient11935" gradientUnits="userSpaceOnUse" y1="345.07" gradientTransform="translate(260)" x2="358.75" y2="345.07"/>
  <linearGradient id="linearGradient2066" x1="246.65" xlink:href="#linearGradient7471" gradientUnits="userSpaceOnUse" y1="345.07" gradientTransform="matrix(2.0846 0 0 .44432 -249.02 271.04)" x2="358.75" y2="345.07"/>
  <linearGradient id="linearGradient2068" x1="246.65" xlink:href="#linearGradient11935" gradientUnits="userSpaceOnUse" y1="345.07" gradientTransform="matrix(2.0846 0 0 .44432 -249.02 271.04)" x2="358.75" y2="345.07"/>
  <linearGradient id="linearGradient2070" x1="246.65" gradientUnits="userSpaceOnUse" y1="345.07" gradientTransform="matrix(1.9478 0 0 .088786 -207.83 350.29)" x2="358.75" y2="345.07">
   <stop id="stop12894" stop-color="#9b9b9b" offset="0"/>
   <stop id="stop12896" stop-color="#484848" offset="1"/>
  </linearGradient>
  <linearGradient id="linearGradient2072" x1="246.65" xlink:href="#linearGradient11935" gradientUnits="userSpaceOnUse" y1="345.07" gradientTransform="matrix(1.9478 0 0 .088786 -207.83 350.29)" x2="358.75" y2="345.07"/>
  <linearGradient id="linearGradient2074" x1="246.65" xlink:href="#linearGradient4585" gradientUnits="userSpaceOnUse" y1="345.07" gradientTransform="matrix(1.9531 0 0 .27615 -209.21 345.07)" x2="358.75" y2="345.07"/>
  <linearGradient id="linearGradient2076" x1="246.65" xlink:href="#linearGradient4579" gradientUnits="userSpaceOnUse" y1="345.07" gradientTransform="matrix(1.9531 0 0 .27615 -209.21 345.07)" x2="358.75" y2="345.07"/>
  <linearGradient id="linearGradient2078" x1="246.65" xlink:href="#linearGradient7471" gradientUnits="userSpaceOnUse" y1="345.07" gradientTransform="matrix(.52606 0 0 .52606 152.9 101.76)" x2="358.75" y2="345.07"/>
  <linearGradient id="linearGradient2080" x1="246.65" xlink:href="#linearGradient11935" gradientUnits="userSpaceOnUse" y1="345.07" gradientTransform="matrix(.52606 0 0 .52606 152.9 101.76)" x2="358.75" y2="345.07"/>
  <linearGradient id="linearGradient2082" x1="246.65" xlink:href="#linearGradient7471" gradientUnits="userSpaceOnUse" y1="345.07" gradientTransform="matrix(.41137 0 0 .41137 255.19 157.84)" x2="358.75" y2="345.07"/>
  <linearGradient id="linearGradient2084" x1="246.65" xlink:href="#linearGradient11935" gradientUnits="userSpaceOnUse" y1="345.07" gradientTransform="matrix(.41137 0 0 .41137 255.19 157.84)" x2="358.75" y2="345.07"/>
  <linearGradient id="linearGradient2086" x1="155.21" gradientUnits="userSpaceOnUse" x2="249.07" y1="365.22" y2="365.22">
   <stop id="stop2789" stop-color="#645b5b" offset="0"/>
   <stop id="stop2791" stop-color="#303030" offset="1"/>
  </linearGradient>
  <linearGradient id="linearGradient2088" x1="155.21" gradientUnits="userSpaceOnUse" x2="249.07" y1="365.22" y2="365.22">
   <stop id="stop2797" offset="0"/>
   <stop id="stop2799" stop-color="#bbb" offset="1"/>
  </linearGradient>
  <linearGradient id="linearGradient2090" x1="155.21" xlink:href="#linearGradient4585" gradientUnits="userSpaceOnUse" x2="249.07" y1="365.22" y2="365.22"/>
  <linearGradient id="linearGradient2092" x1="155.21" xlink:href="#linearGradient4579" gradientUnits="userSpaceOnUse" x2="249.07" y1="365.22" y2="365.22"/>
  <linearGradient id="linearGradient2110" x1="246.65" xlink:href="#linearGradient8367" gradientUnits="userSpaceOnUse" y1="345.07" gradientTransform="translate(-100)" x2="358.75" y2="345.07"/>
  <linearGradient id="linearGradient2136" x1="246.65" xlink:href="#linearGradient8367" gradientUnits="userSpaceOnUse" y1="345.07" gradientTransform="translate(260)" x2="358.75" y2="345.07"/>
  <linearGradient id="linearGradient2162" x1="246.65" xlink:href="#linearGradient8367" gradientUnits="userSpaceOnUse" y1="345.07" gradientTransform="matrix(.52606 0 0 .52606 152.9 101.76)" x2="358.75" y2="345.07"/>
  <linearGradient id="linearGradient2188" x1="246.65" xlink:href="#linearGradient8367" gradientUnits="userSpaceOnUse" y1="345.07" gradientTransform="matrix(.41137 0 0 .41137 255.19 157.84)" x2="358.75" y2="345.07"/>
 </defs>
 <g id="layer1" transform="translate(-146.65 -201.14)">
  <g id="g2019" transform="matrix(.92132 0 0 .92132 30.11 27.149)">
   <rect id="rect6576" rx="1.5929" height="285.18" width="109.42" stroke="url(#linearGradient2060)" stroke-linecap="square" y="202.48" x="147.99" stroke-width="2.6788" fill="url(#linearGradient2058)"/>
   <rect id="rect11949" rx="1.5929" height="285.18" width="109.42" stroke="url(#linearGradient2064)" stroke-linecap="square" y="202.48" x="507.99" stroke-width="2.6788" fill="url(#linearGradient2062)"/>
   <rect id="rect11995" rx="3.3205" height="126.71" width="228.09" stroke="url(#linearGradient2068)" stroke-linecap="square" y="361" x="267.94" stroke-width="2.5781" fill="url(#linearGradient2066)"/>
   <rect id="rect12001" rx="3.1027" height="25.32" width="213.13" stroke="url(#linearGradient2072)" stroke-linecap="square" y="368.27" x="275.21" stroke-width="1.114" fill="url(#linearGradient2070)"/>
   <text id="text12898" font-size="12px" xml:space="preserve" y="384.00504" x="287.14285" font-family="Bitstream Vera Sans" fill="#333">
        <tspan id="tspan12900" y="384.00504" x="287.14285">Track 7 - Sing Song</tspan>
      </text>
   <rect id="rect12902" rx="3.1111" height="78.753" width="213.7" stroke="url(#linearGradient2076)" stroke-linecap="square" y="400.98" x="275.14" stroke-width="1.9673" fill="url(#linearGradient2074)"/>
   <rect id="rect13793" rx=".83797" height="150.03" width="57.561" stroke="url(#linearGradient2080)" stroke-linecap="square" y="208.27" x="283.36" stroke-width="1.4092" fill="url(#linearGradient2078)"/>
   <rect id="rect13839" rx=".65527" height="117.32" width="45.011" stroke="url(#linearGradient2084)" stroke-linecap="square" y="241.14" x="357.2" stroke-width="1.102" fill="url(#linearGradient2082)"/>
   <path id="path1898" d="m248.57 365.22a46.429 46.429 0 1 1 -0.11 -3.25" transform="matrix(0 -1 -1 0 568.08 631.65)" stroke="url(#linearGradient2088)" stroke-linecap="square" stroke-width="3" fill="url(#linearGradient2086)"/>
   <path id="path3688" d="m248.57 365.22a46.429 46.429 0 1 1 -0.11 -3.25" transform="matrix(0 -.89192 -.89192 0 528.6 609.8)" stroke="url(#linearGradient2092)" stroke-linecap="square" stroke-dasharray="57.18261267, 57.18261267" stroke-width="2.3826" fill="url(#linearGradient2090)"/>
   <path id="path6551" d="m248.57 365.22a46.429 46.429 0 1 1 -0.11 -3.25" transform="matrix(0 -.79881 -.79881 0 494.6 490.98)" stroke="url(#linearGradient2088)" stroke-linecap="square" stroke-width="3" fill="url(#linearGradient2086)"/>
   <path id="path6553" d="m248.57 365.22a46.429 46.429 0 1 1 -0.11 -3.25" transform="matrix(0 -.71247 -.71247 0 463.06 473.53)" stroke="url(#linearGradient2092)" stroke-linecap="square" stroke-dasharray="57.18261267, 57.18261267" stroke-width="2.3826" fill="url(#linearGradient2090)"/>
   <path id="path6563" d="m248.57 365.22a46.429 46.429 0 1 1 -0.11 -3.25" transform="matrix(0 -.65723 -.65723 0 442.89 378.36)" stroke="url(#linearGradient2088)" stroke-linecap="square" stroke-width="3" fill="url(#linearGradient2086)"/>
   <path id="path6565" d="m248.57 365.22a46.429 46.429 0 1 1 -0.11 -3.25" transform="matrix(0 -.58619 -.58619 0 416.95 364)" stroke="url(#linearGradient2092)" stroke-linecap="square" stroke-dasharray="57.18261267, 57.18261267" stroke-width="2.3826" fill="url(#linearGradient2090)"/>
   <rect id="rect7479" opacity=".6" rx="1.5929" height="285.18" width="109.42" y="202.48" x="147.99" fill="url(#linearGradient2110)"/>
   <path id="path11951" d="m248.57 365.22a46.429 46.429 0 1 1 -0.11 -3.25" transform="matrix(0 -1 -1 0 928.08 631.65)" stroke="url(#linearGradient2088)" stroke-linecap="square" stroke-width="3" fill="url(#linearGradient2086)"/>
   <path id="path11953" d="m248.57 365.22a46.429 46.429 0 1 1 -0.11 -3.25" transform="matrix(0 -.89192 -.89192 0 888.6 609.8)" stroke="url(#linearGradient2092)" stroke-linecap="square" stroke-dasharray="57.18261267, 57.18261267" stroke-width="2.3826" fill="url(#linearGradient2090)"/>
   <path id="path11955" d="m248.57 365.22a46.429 46.429 0 1 1 -0.11 -3.25" transform="matrix(0 -.79881 -.79881 0 854.6 490.98)" stroke="url(#linearGradient2088)" stroke-linecap="square" stroke-width="3" fill="url(#linearGradient2086)"/>
   <path id="path11957" d="m248.57 365.22a46.429 46.429 0 1 1 -0.11 -3.25" transform="matrix(0 -.71247 -.71247 0 823.06 473.53)" stroke="url(#linearGradient2092)" stroke-linecap="square" stroke-dasharray="57.18261267, 57.18261267" stroke-width="2.3826" fill="url(#linearGradient2090)"/>
   <path id="path11959" d="m248.57 365.22a46.429 46.429 0 1 1 -0.11 -3.25" transform="matrix(0 -.65723 -.65723 0 802.89 378.36)" stroke="url(#linearGradient2088)" stroke-linecap="square" stroke-width="3" fill="url(#linearGradient2086)"/>
   <path id="path11961" d="m248.57 365.22a46.429 46.429 0 1 1 -0.11 -3.25" transform="matrix(0 -.58619 -.58619 0 776.95 364)" stroke="url(#linearGradient2092)" stroke-linecap="square" stroke-dasharray="57.18261267, 57.18261267" stroke-width="2.3826" fill="url(#linearGradient2090)"/>
   <rect id="rect11963" opacity=".6" rx="1.5929" height="285.18" width="109.42" y="202.48" x="507.99" fill="url(#linearGradient2136)"/>
   <path id="path13795" d="m248.57 365.22a46.429 46.429 0 1 1 -0.11 -3.25" transform="matrix(0 -.52606 -.52606 0 504.35 434.04)" stroke="url(#linearGradient2088)" stroke-linecap="square" stroke-width="3" fill="url(#linearGradient2086)"/>
   <path id="path13797" d="m248.57 365.22a46.429 46.429 0 1 1 -0.11 -3.25" transform="matrix(0 -.46920 -.46920 0 483.58 422.55)" stroke="url(#linearGradient2092)" stroke-linecap="square" stroke-dasharray="57.18261267, 57.18261267" stroke-width="2.3826" fill="url(#linearGradient2090)"/>
   <path id="path13799" d="m248.57 365.22a46.429 46.429 0 1 1 -0.11 -3.25" transform="matrix(0 -.42022 -.42022 0 465.69 360.04)" stroke="url(#linearGradient2088)" stroke-linecap="square" stroke-width="3" fill="url(#linearGradient2086)"/>
   <path id="path13801" d="m248.57 365.22a46.429 46.429 0 1 1 -0.11 -3.25" transform="matrix(0 -.37480 -.37480 0 449.11 350.86)" stroke="url(#linearGradient2092)" stroke-linecap="square" stroke-dasharray="57.18261267, 57.18261267" stroke-width="2.3826" fill="url(#linearGradient2090)"/>
   <path id="path13803" d="m248.57 365.22a46.429 46.429 0 1 1 -0.11 -3.25" transform="matrix(0 -.34574 -.34574 0 438.49 300.8)" stroke="url(#linearGradient2088)" stroke-linecap="square" stroke-width="3" fill="url(#linearGradient2086)"/>
   <path id="path13805" d="m248.57 365.22a46.429 46.429 0 1 1 -0.11 -3.25" transform="matrix(0 -.30838 -.30838 0 424.84 293.24)" stroke="url(#linearGradient2092)" stroke-linecap="square" stroke-dasharray="57.18261267, 57.18261267" stroke-width="2.3826" fill="url(#linearGradient2090)"/>
   <rect id="rect13807" opacity=".6" rx=".83797" height="150.03" width="57.561" y="208.27" x="283.36" fill="url(#linearGradient2162)"/>
   <path id="path13841" d="m248.57 365.22a46.429 46.429 0 1 1 -0.11 -3.25" transform="matrix(0 -.41137 -.41137 0 530.01 417.68)" stroke="url(#linearGradient2088)" stroke-linecap="square" stroke-width="3" fill="url(#linearGradient2086)"/>
   <path id="path13843" d="m248.57 365.22a46.429 46.429 0 1 1 -0.11 -3.25" transform="matrix(0 -.36690 -.36690 0 513.77 408.7)" stroke="url(#linearGradient2092)" stroke-linecap="square" stroke-dasharray="57.18261267, 57.18261267" stroke-width="2.3826" fill="url(#linearGradient2090)"/>
   <path id="path13845" d="m248.57 365.22a46.429 46.429 0 1 1 -0.11 -3.25" transform="matrix(0 -.32860 -.32860 0 499.79 359.82)" stroke="url(#linearGradient2088)" stroke-linecap="square" stroke-width="3" fill="url(#linearGradient2086)"/>
   <path id="path13847" d="m248.57 365.22a46.429 46.429 0 1 1 -0.11 -3.25" transform="matrix(0 -.29309 -.29309 0 486.81 352.64)" stroke="url(#linearGradient2092)" stroke-linecap="square" stroke-dasharray="57.18261267, 57.18261267" stroke-width="2.3826" fill="url(#linearGradient2090)"/>
   <path id="path13849" d="m248.57 365.22a46.429 46.429 0 1 1 -0.11 -3.25" transform="matrix(0 -.27036 -.27036 0 478.51 313.49)" stroke="url(#linearGradient2088)" stroke-linecap="square" stroke-width="3" fill="url(#linearGradient2086)"/>
   <path id="path13851" d="m248.57 365.22a46.429 46.429 0 1 1 -0.11 -3.25" transform="matrix(0 -.24114 -.24114 0 467.84 307.58)" stroke="url(#linearGradient2092)" stroke-linecap="square" stroke-dasharray="57.18261267, 57.18261267" stroke-width="2.3826" fill="url(#linearGradient2090)"/>
   <rect id="rect13853" opacity=".6" rx=".65527" height="117.32" width="45.011" y="241.14" x="357.2" fill="url(#linearGradient2188)"/>
  </g>
 </g>
 <metadata>
  <rdf:RDF>
   <cc:Work>
    <dc:format>image/svg+xml</dc:format>
    <dc:type rdf:resource="http://purl.org/dc/dcmitype/StillImage"/>
    <cc:license rdf:resource="http://creativecommons.org/licenses/publicdomain/"/>
    <dc:publisher>
     <cc:Agent rdf:about="http://openclipart.org/">
      <dc:title>Openclipart</dc:title>
     </cc:Agent>
    </dc:publisher>
   </cc:Work>
   <cc:License rdf:about="http://creativecommons.org/licenses/publicdomain/">
    <cc:permits rdf:resource="http://creativecommons.org/ns#Reproduction"/>
    <cc:permits rdf:resource="http://creativecommons.org/ns#Distribution"/>
    <cc:permits rdf:resource="http://creativecommons.org/ns#DerivativeWorks"/>
   </cc:License>
  </rdf:RDF>
 </metadata>
</svg>
