<?xml version="1.0"?>
<svg xmlns:rdf="http://www.w3.org/1999/02/22-rdf-syntax-ns#" xmlns="http://www.w3.org/2000/svg" xmlns:cc="http://web.resource.org/cc/" xmlns:xlink="http://www.w3.org/1999/xlink" xmlns:dc="http://purl.org/dc/elements/1.1/" id="Layer_1" xml:space="preserve" overflow="visible" height="249.59" viewBox="0 0 377.002 249.591" width="377" version="1.1" enable-background="new 0 0 377.002 249.591">
<g clip-rule="evenodd" fill-rule="evenodd">
	<path d="m184 1.127c20.288-0.636 44.601 1.761 64.8 6 20.252 4.25 38.642 11.277 54.96 19.68 8.122 4.183 15.597 9.601 23.04 14.4 14.758 9.517 28.472 21.064 37.68 36.72 4.721 8.027 8.622 16.826 9.84 27.36 5.708 49.375-34.425 66.63-65.04 82.56-8.165 4.249-16.558 8.388-25.439 12-8.678 3.529-17.269 7.745-26.4 10.8-17.991 6.019-39.938 11.04-63.359 11.04-22.821 0.001-46.954-1.472-67.92-5.76-20.205-4.132-39.114-10.694-55.92-18.72-16.193-7.732-32.347-17.715-44.16-30.48-11.602-12.537-23.112-28.181-23.76-50.64-0.605-20.974 8.852-40.496 19.92-53.76 5.803-6.955 11.72-13.749 18.24-18.96 3.479-2.781 7.155-5.276 10.8-7.92 10.457-7.586 24.25-13.789 37.44-18.48 9.211-3.276 19.139-5.264 29.52-7.68 20.169-4.695 41.584-8.16 65.28-8.16 0.16-0.003 0.32 0.002 0.48-0.003zm110.64 23.76c-21.748-9.341-46.29-16.632-74.64-18.96-11.377-0.934-23.111-2.41-34.8-1.92-29.07 1.218-58.343 3.683-81.84 12.24 17.345-4.596 36.718-9.061 57.36-10.32 20.931-1.277 42.046-1.246 62.88 0.72 7.76 0.732 15.569 2.43 23.04 3.84 22.707 4.285 42.553 12.551 60.72 20.4-3.6-2.848-8.27-4.088-12.72-6zm-89.76-16.32c-18.371-1.018-37.39-0.08-56.16 1.92-9.938 1.059-19.62 2.516-28.32 5.28 26.518-6.129 59.934-8.288 90.48-6.24 21.534 1.444 41.117 5.732 58.56 11.04 9.963 3.031 19.465 6.579 27.84 10.56 0.97 0.461 2.393 1.448 3.601 0.96-26.01-12.459-60.32-21.544-96-23.52zm-71.52 46.56c-4.08-3.142-8.698-5.539-13.2-8.16-4.496-2.618-9.33-4.907-13.92-7.44-9.208-5.082-18.181-10.638-27.36-15.6-0.897 0.319-1.659-0.715-2.16 0 19.407 9.877 37.42 21.149 56.64 31.2zm28.56-26.64c-14.138 1.144-27.177 4.511-38.88 7.92-3.975 1.158-8.188 1.741-11.52 4.08 21.566-7.542 47.647-12.818 76.08-12.48 21.932 0.26 41.423 2.778 58.32 7.92 10.131 3.083 19.741 6.101 28.319 9.6-29.16-14.594-70.92-20.39-112.32-17.04zm-90.236-0.72c-7.087 3.353-13.915 7.405-20.4 11.76-6.247 4.195-12.279 8.351-17.76 13.68-10.392 10.104-20.853 22.344-23.28 39.6-2.551 18.137 3.431 34.983 11.76 46.8 6.322 8.969 14.245 16.524 22.8 22.8 1.151 0.845 2.119 2.724 3.84 2.399-9.107-6.34-17.677-14.301-24.72-23.76-6.881-9.241-12.742-21.045-13.68-35.04-1.309-19.521 6.636-33.183 15.12-43.2 12.768-15.076 28.997-25.696 46.8-34.8-0.053-0.19-0.201-0.282-0.48-0.243zm225.6 8.88c-15.891 7.268-31.875 14.112-47.04 21.6-1.048 0.518-2.686 0.697-3.359 1.92 13.532-6.2 28.651-12.854 42.72-19.44 6.708-3.14 12.931-6.967 21.36-7.92-5.78-1.263-9.58 1.966-13.68 3.84zm17.28-1.44c4.794 2.926 10.427 6.573 15.84 10.32 5.143 3.56 9.719 7.748 13.92 12.24 4.396 4.699 8.756 8.852 12 14.16 6.491 10.62 11.449 24.441 8.88 41.04-2.82 18.222-14.675 31.208-24.479 42.24 3.397-2.302 6.068-5.658 8.64-8.88 7.631-9.562 15.122-21.183 16.8-36.24 1.897-17.023-3.628-29.992-10.08-39.6-10.104-15.048-26.004-27.153-41.279-35.76-0.053-0.187-0.201-0.279-0.48-0.24-0.26 0.343-0.26 0.583 0.24 0.717zm21.36 117.12c6.733-6.148 12.497-13.463 16.8-21.84 4.943-8.726 8.285-19.038 6.96-31.2-3.634-33.344-30.026-50.746-52.8-64.08-0.27 0.051-0.374 0.267-0.48 0.48 0.241 0 0.286 0.195 0.48 0.24 2.897 1.864 6.182 3.436 9.12 5.28 13.993 8.786 28.022 20.083 35.76 35.04 3.194 6.176 6.299 13.095 7.199 21.12 1.465 13.042-1.809 23.602-6 31.68-6.15 11.857-14.882 20.758-24.239 28.8 2.7-1.41 4.99-3.5 7.2-5.52zm-298.08-96.723c-9.18 9.403-18.511 21.486-21.36 36-2.782 14.17 1.124 28.182 6 37.2 7.611 14.078 18.977 24.606 31.68 33.12-1.16-1.9-3.32-3.066-5.04-4.319-5.959-4.342-10.696-9.101-15.6-14.4-6.493-7.017-11.503-15.224-15.12-24.96-4.064-12.418-1.839-27.919 2.4-37.68 3.941-9.074 9.238-15.827 15.36-22.32 8.444-8.956 18.963-15.815 28.8-21.36-0.027-0.293-0.072-0.568-0.48-0.48-9.296 5.438-19.231 11.608-26.64 19.197zm65.276-12.48c-5.501 2.67-11.245 5.021-16.56 8.4-4.78 3.039-9.223 6.53-13.92 10.32-11.766 9.493-24.923 26.195-19.68 48.72 3.691 15.858 16.438 27.323 28.08 35.041-11.117-8.813-22.874-18.511-27.12-33.84-1.846-6.665-1.617-16.235 0-22.32 3.088-11.626 11.073-20.595 19.92-27.84 7.686-6.293 16.44-12.159 25.68-16.32 1.345-0.605 3.125-0.608 4.08-1.92-0.05-0.19-0.2-0.282-0.48-0.243zm168.48 53.04c-1.935-12.908-11.062-23.207-21.84-30.72-10.343-7.21-24.547-12.446-37.44-15.12-14.162-2.938-30.501-2.777-44.64-0.72-2.086 0.303-4.696 0.314-6 1.44 36.812-7.234 75.753 2.865 96.24 21.36 6.301 7.881 14.387 16.832 13.439 30.96-0.623 9.297-4.677 16.5-9.12 21.6-1.253 1.439-3.288 2.635-3.12 4.08 7.43-7.98 14.86-17 12.48-32.883zm8.4-47.52c8.194 4.125 16.166 9.731 23.279 16.08 6.955 6.207 13.351 13.779 16.561 23.04 5.147 14.855 0.687 29.807-6.24 39.84-8.289 12.006-21.337 20.5-34.08 27.119-7.899-6.42-15.384-13.256-23.52-19.439 3.081 4.206 7.856 6.778 11.76 10.08 1.941 1.642 3.641 3.609 5.52 5.28 1.923 1.709 4.472 2.862 5.761 5.279 0.48-0.695 0.889 0.692 1.68 0.48 6.041 6.032 15.25 11.978 21.84 18.479 3.076 3.035 5.366 6.604 6.24 11.521 0.029-8.746-7.719-13.62-13.2-18-5.705-4.56-10.562-9.222-15.36-13.2 17.239-9.529 39.34-23.957 42.24-47.76 1.589-13.037-2.695-22.942-7.68-30.48-8.43-12.747-21.286-22.026-35.04-29.04 0.04 0.279-0.04 0.678 0.24 0.717zm-174.24 39.36c-1.575 4.081-2.542 9.843-2.16 14.88 1.394 18.367 15.623 30.311 28.56 37.44 11.568 6.375 28.67 11.905 44.4 12.96 19.589 1.313 36.052-1.031 51.12-6 8.234-2.716 16.05-6.096 22.08-10.8-11.458 6.288-24.849 12.575-40.561 15.12-29.578 4.789-60.072-1.883-80.64-14.4-10.789-6.566-20.946-16.591-23.76-29.28-0.705-3.178-0.996-6.189-0.72-9.6 1.396-17.251 13.521-27.486 25.2-34.8-0.027-0.293-0.072-0.568-0.48-0.48-8.88 5.09-18.88 14.2-23.04 24.957zm28.32-5.76c2.364-0.756 4.009-2.231 5.76-3.6 7.221-5.019 14.661-9.819 21.84-14.88-10.01 5.343-18.69 12.025-27.6 18.48zm8.4-11.28c3.739-2.101 7.516-4.164 10.56-6.96-3.72 2.122-7.56 4.114-10.56 6.96zm19.68 54.963c10.559 3.927 23.182 5.926 36 4.561 15.702-1.673 33.028-8.792 37.92-20.4 3.748-8.896-0.888-19.398-5.521-24.24-9.017-9.424-26.67-16.185-44.4-15.36-12.421 0.578-21.562 2.793-30.48 8.16-9.613 5.785-17.412 14.197-15.36 28.32 3.46 9.98 11.58 15.14 21.84 18.96zm-6.24-51.843c-11.507 8.894-24.864 15.937-36 25.2 4.673-2.422 8.645-5.88 12.96-8.88 7.907-5.497 16.606-9.976 23.76-16.32h-0.72zm213.12 43.443c-3.324 15.196-12.283 28.021-22.56 37.92-5.202 5.011-10.631 9.698-16.56 13.68-6.266 4.207-12.618 7.858-18.96 11.28 3.788-0.9 7.087-3.324 10.56-5.28 7.223-4.068 13.364-8.616 19.44-13.68 16.802-14.002 34.449-37.333 28.319-68.88-0.053-0.188-0.201-0.279-0.479-0.24 1.58 8.38 1.88 17.73 0.24 25.2zm-362.4-21.123c-0.77 6.416-0.804 13.898 0.72 20.4 5.416 23.113 22.311 39.962 38.64 51.6-1.664-2.585-4.557-4.144-6.96-6-7.796-6.022-13.899-13.008-19.68-21.12-8.084-11.344-14.538-27.278-12.24-45.36-0.053-0.187-0.201-0.279-0.48-0.24v0.717zm114.96 8.643c4.516-2.364 8.514-5.247 12.72-7.92-0.027-0.292-0.072-0.568-0.48-0.48-3.88 2.995-8.67 5.08-12.24 8.4zm133.2 4.56c-0.833 1.468-2.77 1.76-4.08 2.64-1.16 0.779-2.028 1.904-3.12 2.64-5.285 3.563-10.972 7.07-16.32 10.32-1.232 0.749-2.89 0.975-3.359 2.64 7.788-4.878 16.078-9.896 23.52-14.879 1.439-0.964 3.151-1.875 4.08-3.36h-0.72zm-18.24 7.44c3.876-1.884 7.107-4.413 10.32-6.96-3.32 1.47-7.41 4.27-10.32 6.96zm-231.84 4.32c3.351 22.354 17.516 39.234 31.68 50.88 1.959 1.61 3.965 3.653 6.48 4.08-19.736-15.145-37.115-32.645-38.4-66.24-0.152 3.27-0.286 7.77 0.24 11.28zm221.28 14.64c2.812-1.29 5.696-2.838 8.16-4.56 3.522-2.463 6.902-4.788 10.319-7.2 0.442-0.312 1.109-0.203 1.2-0.96-7.19 3.6-13.26 8.33-19.68 12.72zm-113.28-6.24c-9.006 5.815-19.958 11.393-30.48 17.76-7.231 4.376-14.979 8.968-22.32 12.96-6.151 3.345-11.131 6.594-13.44 13.2-0.582 1.662-1.512 3.41-1.2 5.039 0.965-2.234 1.776-4.624 2.4-7.199 7.331-10.51 21.727-13.954 31.68-21.84 11.268-6.572 23.125-12.555 33.84-19.681-0.05-0.19-0.2-0.28-0.48-0.24zm-25.436 20.4c9.675 5.729 21.232 11.137 33.84 14.88 12.467 3.702 26.329 7.248 40.56 8.4 42.14 3.41 84.347-1.346 113.28-16.08-28.627 12.729-67.959 18.942-107.28 16.08-31.174-2.27-59.349-11.771-80.16-24h-0.72c-0.009 0.41 0.188 0.61 0.484 0.72zm-28.8 14.64c37.929 23.99 95.83 36.616 154.56 32.16 29.171-2.213 55.421-8.635 77.52-17.52 3.241-1.304 6.622-2.331 9.36-4.32-21.673 8.874-47.905 17.474-74.88 20.16-31.323 3.119-64.087 2.424-92.64-3.36-28.412-5.755-54.012-15.115-73.92-27.84-0.283 0.038-0.681-0.041-0.72 0.24 0.346 0.05 0.408 0.39 0.724 0.48zm6.48 10.8c13.105 6.738 27.149 11.982 42 16.079 39.183 10.812 93.744 13.823 138.24 5.761 16.708-3.027 32.065-6.846 45.841-12.24 4.597-1.801 9.24-3.64 13.199-6.24-16.99 7.905-36.942 13.961-59.04 17.76-32.35 5.562-74.078 6.388-107.04 0.96-33.195-5.465-62.159-14.805-85.2-29.999-0.283 0.037-0.681-0.042-0.72 0.239 3.56 2.55 8.013 5.25 12.724 7.68zm239.52-2.64c3.103-0.737 6.69-3.068 9.36-5.04-3.54 1.25-6.48 3.11-9.36 5.04zm-254.4-1.68c3.672 2.489 8.185 4.991 12.72 7.2 4.348 2.117 8.674 4.572 13.2 6.479 44.483 18.745 112.28 26.483 168.96 16.08 17.018-3.123 32.974-6.627 47.04-12 4.715-1.801 9.668-3.363 13.68-6.24-35.02 16.574-84.451 23.604-132 21.601-50.193-2.115-92.035-13.808-123.84-33.84 0.041 0.28-0.037 0.68 0.244 0.72zm258.72 5.76c1.479 0.2 1.6-0.96 2.88-0.96-0.11-1.28-2.61 0.11-2.88 0.96zm-259.44 4.32c24.569 15.848 56.48 26.4 92.64 31.439 35.71 4.978 77.063 4.823 111.36-2.16-33.948 5.403-77.653 7.092-113.04 1.44-35.109-5.606-66.852-15.463-90.72-31.439h-0.72c-0.009 0.41 0.188 0.61 0.484 0.72z" fill="#fff"/>
	<path d="m307.36 30.887c-18.167-7.849-38.013-16.115-60.72-20.4-7.471-1.41-15.28-3.108-23.04-3.84-20.834-1.966-41.949-1.997-62.88-0.72-20.642 1.259-40.015 5.724-57.36 10.32 23.497-8.557 52.77-11.022 81.84-12.24 11.689-0.49 23.423 0.986 34.8 1.92 28.35 2.328 52.892 9.619 74.64 18.96 4.45 1.912 9.12 3.152 12.72 6z"/>
	<path d="m300.88 32.087c-1.208 0.488-2.631-0.5-3.601-0.96-8.375-3.981-17.877-7.528-27.84-10.56-17.442-5.308-37.025-9.596-58.56-11.04-30.546-2.048-63.962 0.11-90.48 6.24 8.7-2.764 18.382-4.221 28.32-5.28 18.771-2 37.79-2.938 56.16-1.92 35.68 1.976 69.99 11.061 96 23.52z"/>
	<path d="m76.724 23.927c0.501-0.715 1.263 0.319 2.16 0 9.179 4.962 18.151 10.518 27.36 15.6 4.59 2.533 9.424 4.822 13.92 7.44 4.502 2.621 9.121 5.018 13.2 8.16-19.22-10.051-37.233-21.323-56.636-31.2z"/>
	<path d="m274.24 45.527c-8.578-3.5-18.188-6.518-28.319-9.6-16.897-5.142-36.389-7.66-58.32-7.92-28.432-0.338-54.514 4.938-76.08 12.48 3.332-2.339 7.545-2.922 11.52-4.08 11.703-3.409 24.742-6.776 38.88-7.92 41.4-3.35 83.16 2.446 112.32 17.04z"/>
	<path d="m72.164 28.007c-17.803 9.104-34.032 19.724-46.8 34.8-8.484 10.018-16.429 23.679-15.12 43.2 0.938 13.994 6.799 25.798 13.68 35.04 7.043 9.459 15.612 17.42 24.72 23.76-1.721 0.324-2.688-1.555-3.84-2.399-8.555-6.275-16.478-13.831-22.8-22.8-8.329-11.817-14.312-28.663-11.76-46.8 2.428-17.256 12.889-29.496 23.28-39.6 5.481-5.329 11.513-9.485 17.76-13.68 6.485-4.355 13.312-8.408 20.4-11.76 0.279-0.042 0.427 0.05 0.48 0.237z"/>
	<path d="m310.96 32.807c-8.43 0.953-14.652 4.78-21.36 7.92-14.068 6.586-29.188 13.24-42.72 19.44 0.674-1.223 2.312-1.402 3.359-1.92 15.165-7.487 31.149-14.332 47.04-21.6 4.1-1.874 7.9-5.103 13.68-3.84z"/>
	<path d="m314.32 34.487c0.279-0.039 0.428 0.053 0.48 0.24 15.275 8.607 31.175 20.712 41.279 35.76 6.452 9.608 11.978 22.577 10.08 39.6-1.678 15.058-9.169 26.679-16.8 36.24-2.571 3.222-5.242 6.578-8.64 8.88 9.805-11.031 21.659-24.018 24.479-42.24 2.569-16.599-2.389-30.42-8.88-41.04-3.244-5.309-7.604-9.461-12-14.16-4.201-4.492-8.777-8.68-13.92-12.24-5.413-3.748-11.046-7.394-15.84-10.32-0.5-0.137-0.5-0.377-0.24-0.723z"/>
	<path d="m328.72 157.85c9.357-8.042 18.089-16.942 24.239-28.8 4.191-8.078 7.465-18.638 6-31.68-0.9-8.025-4.005-14.944-7.199-21.12-7.737-14.957-21.767-26.254-35.76-35.04-2.938-1.844-6.223-3.416-9.12-5.28-0.194-0.045-0.239-0.241-0.48-0.24 0.106-0.213 0.211-0.429 0.48-0.48 22.773 13.334 49.166 30.736 52.8 64.08 1.325 12.162-2.017 22.475-6.96 31.2-4.303 8.377-10.066 15.691-16.8 21.84-2.21 2.02-4.5 4.11-7.2 5.52z"/>
	<path d="m64.484 36.407c0.408-0.088 0.453 0.187 0.48 0.48-9.837 5.544-20.355 12.404-28.8 21.36-6.122 6.493-11.419 13.247-15.36 22.32-4.239 9.761-6.464 25.262-2.4 37.68 3.617 9.736 8.627 17.943 15.12 24.96 4.904 5.3 9.641 10.059 15.6 14.4 1.72 1.253 3.88 2.419 5.04 4.319-12.704-8.514-24.069-19.042-31.68-33.12-4.876-9.018-8.782-23.03-6-37.2 2.849-14.513 12.18-26.596 21.36-36 7.409-7.592 17.344-13.762 26.64-19.203z"/>
	<path d="m103.6 43.367c-0.955 1.312-2.735 1.314-4.08 1.92-9.24 4.161-17.995 10.027-25.68 16.32-8.847 7.245-16.832 16.213-19.92 27.84-1.617 6.085-1.846 15.655 0 22.32 4.246 15.33 16.003 25.027 27.12 33.84-11.642-7.718-24.389-19.183-28.08-35.041-5.244-22.524 7.914-39.227 19.68-48.72 4.697-3.79 9.141-7.281 13.92-10.32 5.315-3.38 11.058-5.73 16.56-8.4 0.28-0.042 0.43 0.05 0.48 0.237z"/>
	<path d="m259.12 129.05c-0.168-1.445 1.867-2.641 3.12-4.08 4.443-5.1 8.497-12.303 9.12-21.6 0.947-14.128-7.139-23.079-13.439-30.96-20.487-18.495-59.429-28.594-96.24-21.36 1.304-1.125 3.914-1.137 6-1.44 14.139-2.057 30.478-2.218 44.64 0.72 12.894 2.674 27.098 7.91 37.44 15.12 10.777 7.513 19.905 17.812 21.84 30.72 2.38 15.88-5.05 24.9-12.48 32.88z"/>
	<path d="m279.76 47.927c13.754 7.014 26.61 16.293 35.04 29.04 4.984 7.538 9.269 17.443 7.68 30.48-2.9 23.803-25.001 38.23-42.24 47.76 4.798 3.979 9.655 8.641 15.36 13.2 5.481 4.38 13.229 9.254 13.2 18-0.874-4.917-3.164-8.485-6.24-11.521-6.59-6.502-15.799-12.447-21.84-18.479-0.791 0.212-1.199-1.176-1.68-0.48-1.289-2.417-3.838-3.57-5.761-5.279-1.879-1.671-3.578-3.639-5.52-5.28-3.903-3.302-8.679-5.874-11.76-10.08 8.136 6.184 15.62 13.02 23.52 19.439 12.743-6.619 25.791-15.113 34.08-27.119 6.927-10.034 11.388-24.985 6.24-39.84-3.21-9.261-9.605-16.833-16.561-23.04-7.113-6.349-15.085-11.955-23.279-16.08-0.28-0.042-0.2-0.441-0.24-0.723z"/>
	<path d="m128.8 63.047c0.408-0.088 0.453 0.187 0.48 0.48-11.679 7.314-23.804 17.548-25.2 34.8-0.276 3.411 0.015 6.422 0.72 9.6 2.813 12.688 12.971 22.713 23.76 29.28 20.567 12.518 51.062 19.189 80.64 14.4 15.712-2.545 29.103-8.832 40.561-15.12-6.03 4.704-13.846 8.084-22.08 10.8-15.068 4.969-31.531 7.313-51.12 6-15.729-1.055-32.832-6.585-44.4-12.96-12.937-7.129-27.167-19.073-28.56-37.44-0.382-5.037 0.585-10.799 2.16-14.88 4.16-10.76 14.16-19.87 23.04-24.963z"/>
	<path d="m161.68 63.767c-7.179 5.061-14.619 9.861-21.84 14.88-1.751 1.369-3.396 2.844-5.76 3.6 8.91-6.455 17.59-13.137 27.6-18.48z"/>
	<path d="m153.04 64.007c-3.043 2.796-6.821 4.859-10.56 6.96 3-2.846 6.84-4.838 10.56-6.96z"/>
	<path d="m140.32 106.97c-2.052-14.124 5.747-22.536 15.36-28.32 8.918-5.366 18.059-7.582 30.48-8.16 17.73-0.825 35.383 5.936 44.4 15.36 4.633 4.841 9.269 15.344 5.521 24.24-4.892 11.608-22.218 18.728-37.92 20.4-12.819 1.365-25.441-0.634-36-4.561-10.26-3.82-18.38-8.98-21.84-18.96zm41.04-35.523c-13.367 0.973-28.88 8.207-35.52 16.56-1.717 2.16-3.865 6.685-4.56 9.6-1.871 7.847 1.863 14.428 5.52 18.24 10.067 10.493 29.803 14.854 49.68 13.68 12.249-0.724 28.778-6.36 35.76-15.12 2.351-2.949 4.165-7.431 4.32-11.28 0.507-12.524-9.865-19.847-17.04-24-9.001-5.21-19.981-8.097-32.88-7.68-1.55 0.048-3.74-0.115-5.28-0.003z"/>
	<path d="m186.64 71.447c12.898-0.417 23.879 2.469 32.88 7.68 7.175 4.153 17.547 11.476 17.04 24-0.155 3.85-1.97 8.331-4.32 11.28-6.981 8.76-23.511 14.396-35.76 15.12-19.876 1.174-39.613-3.188-49.68-13.68-3.657-3.812-7.391-10.393-5.52-18.24 0.695-2.915 2.843-7.439 4.56-9.6 6.64-8.354 22.153-15.587 35.52-16.56 1.54-0.115 3.73 0.048 5.28-0.003zm47.28 27.6c-1.682-17.501-25.802-26.538-45.84-26.4-6.113 0.042-13.185 0.412-18.48 2.88 4.472-0.581 9.236-1.99 14.64-2.4 18.059-1.37 41.506 6.759 47.28 19.44 4.567 10.031-1.113 19.435-6.96 24.24 5.15-3.93 10.18-9.25 9.36-17.763zm-6-8.16c-4.997-8.619-20.045-14.775-34.08-15.84-5.128-0.389-10.487-0.388-15.12 0.96 20.953-2.367 48.599 5.04 50.88 21.36 1.112 7.955-4.485 13.329-8.4 16.32-1.178 0.9-3.599 1.658-3.119 2.88 8.53-4.25 15.84-15.34 9.84-25.683zm-73.44-8.88c-8.422 4.623-14.914 16.518-9.36 26.64 7.703 14.039 32.569 20.63 50.16 18-20.96 1.235-44.104-5.315-50.399-20.16-4.658-10.983 3.851-20.066 10.08-24.48-0.16-0.003-0.32-0.003-0.48-0.003zm55.68 14.16c-0.014-10.651-16.745-14.124-26.88-12 11.919-0.687 25.541 2.058 26.4 11.52 0.131 1.439-0.519 3.463-1.2 4.56-1.208 1.946-3.832 2.698-5.04 4.56 3.39-1.81 6.73-3.97 6.72-8.643zm-63.36 5.043c0.351 2.548 1.89 5.694 3.6 7.92 8.596 11.188 31.766 16.484 49.2 12.72-20.554 2.621-44.235-2.808-51.12-17.04-2.807-5.801-0.126-13.275 3.36-16.56-0.027-0.293-0.072-0.568-0.48-0.48-2.56 3.427-5.42 7.143-4.56 13.44zm47.52 6.24c-14.351 1.967-32.803-4.653-24.479-17.52h-0.72c-9.04 13.41 13.28 21.06 25.2 17.52z" fill="#A0CE67"/>
	<path d="m224.56 116.81c5.847-4.805 11.527-14.208 6.96-24.24-5.773-12.682-29.221-20.811-47.28-19.44-5.404 0.41-10.168 1.819-14.64 2.4 5.296-2.468 12.367-2.838 18.48-2.88 20.038-0.138 44.158 8.899 45.84 26.4 0.82 8.51-4.21 13.83-9.36 17.76z"/>
	<path d="m156.64 74.087c-7.154 6.345-15.853 10.823-23.76 16.32-4.315 3-8.287 6.458-12.96 8.88 11.136-9.264 24.493-16.307 36-25.2h0.72z"/>
	<path d="m218.08 116.57c-0.479-1.222 1.941-1.98 3.119-2.88 3.915-2.991 9.513-8.365 8.4-16.32-2.281-16.32-29.927-23.727-50.88-21.36 4.633-1.348 9.992-1.349 15.12-0.96 14.035 1.065 29.083 7.221 34.08 15.84 6 10.34-1.31 21.43-9.84 25.68z"/>
	<path d="m154.96 82.007c-6.229 4.414-14.738 13.497-10.08 24.48 6.295 14.845 29.439 21.396 50.399 20.16-17.591 2.63-42.457-3.962-50.16-18-5.553-10.122 0.938-22.017 9.36-26.64 0.16-0.003 0.32-0.003 0.48-0.003z"/>
	<path d="m203.44 104.81c1.208-1.862 3.832-2.614 5.04-4.56 0.682-1.097 1.331-3.121 1.2-4.56-0.859-9.462-14.48-12.207-26.4-11.52 10.135-2.124 26.867 1.349 26.88 12 0.01 4.67-3.33 6.83-6.72 8.64z"/>
	<path d="m151.36 87.767c0.408-0.088 0.453 0.187 0.48 0.48-3.486 3.285-6.167 10.759-3.36 16.56 6.884 14.232 30.566 19.661 51.12 17.04-17.434 3.764-40.604-1.532-49.2-12.72-1.71-2.226-3.25-5.372-3.6-7.92-0.86-6.297 2-10.013 4.56-13.443z"/>
	<path d="m169.12 89.927h0.72c-8.324 12.867 10.129 19.487 24.479 17.52-11.92 3.54-34.24-4.11-25.2-17.523z"/>
	<path d="m368.8 92.327c0.278-0.039 0.427 0.053 0.479 0.24 6.13 31.547-11.518 54.878-28.319 68.88-6.076 5.063-12.218 9.611-19.44 13.68-3.473 1.956-6.771 4.38-10.56 5.28 6.342-3.422 12.694-7.073 18.96-11.28 5.929-3.981 11.357-8.669 16.56-13.68 10.276-9.898 19.235-22.724 22.56-37.92 1.64-7.47 1.34-16.82-0.24-25.203z"/>
	<path d="m6.644 95.687c0.279-0.039 0.427 0.053 0.48 0.24-2.298 18.082 4.156 34.016 12.24 45.36 5.781 8.112 11.884 15.098 19.68 21.12 2.403 1.856 5.296 3.415 6.96 6-16.33-11.638-33.224-28.487-38.64-51.6-1.523-6.501-1.489-13.984-0.72-20.4v-0.723z"/>
	<path d="m133.84 96.647c0.408-0.088 0.453 0.188 0.48 0.48-4.207 2.673-8.204 5.556-12.72 7.92 3.57-3.32 8.36-5.405 12.24-8.403z"/>
	<path d="m255.52 109.61c-0.929 1.485-2.641 2.396-4.08 3.36-7.441 4.983-15.731 10.001-23.52 14.879 0.47-1.665 2.127-1.891 3.359-2.64 5.349-3.25 11.035-6.756 16.32-10.32 1.092-0.736 1.96-1.861 3.12-2.64 1.311-0.88 3.247-1.172 4.08-2.64h0.72z"/>
	<path d="m246.88 110.09c-3.213 2.547-6.444 5.076-10.32 6.96 2.91-2.69 7-5.49 10.32-6.96z"/>
	<path d="m4.484 110.09c1.285 33.596 18.664 51.096 38.4 66.24-2.515-0.427-4.521-2.47-6.48-4.08-14.165-11.646-28.33-28.525-31.68-50.88-0.526-3.51-0.392-8.01-0.24-11.28z"/>
	<path d="m1.364 118.73c0.204-0.044 0.227 0.094 0.24 0.24 3.689 31.425 22.588 50.55 44.16 65.28 21.568 14.727 46.846 25.435 77.04 31.92 10.045 2.157 20.692 3.442 31.68 4.8 21.753 2.688 46.124 2.831 66.719-0.72 31.192-5.378 56.26-15.263 81.36-27.6 7.822-3.846 15.555-8.629 23.52-12.96 7.988-4.345 15.851-8.333 22.561-13.681 10.301-8.21 18.937-17.258 23.76-30.96 1.569-4.457 2.321-9.194 3.601-14.4 1.345 23.769-8.322 40.917-19.921 54-23.229 26.203-56.923 41.89-96.96 51.6-40.267 9.766-92.174 9.501-133.44 0.72-20.07-4.271-39.161-9.846-55.68-18.479-8.242-4.308-15.985-8.78-23.52-13.681-14.734-9.581-27.335-21.629-36.48-37.68-5.933-10.412-9.624-22.293-8.64-37.68 0.004-0.24 0.004-0.48 0.004-0.72zm40.8 72.24c-1.287-2.205-3.62-3.458-5.52-5.04-13.504-11.238-25.637-24.372-30.96-43.439-0.433-1.552-0.294-3.225-1.44-4.561 5.116 25.2 20.865 39.77 37.92 53.04zm327.6-41.52c-8.573 22.639-25.677 37.317-45.12 48.72-6.608 3.876-13.719 6.92-20.4 11.04 29.003-13.237 54.998-29.482 66.24-60.48h-0.72v0.72zm-327.6 35.28c-1.702-2.241-4.021-4.054-6.24-5.76-2.317-1.78-4.307-3.871-6.72-5.52-5.45-6.229-11.108-12.252-15.6-19.44-0.307-0.013-0.333-0.308-0.72-0.24 7.651 12.43 17.648 22.51 29.28 30.96zm268.56 16.08c22.569-10.07 41.305-23.975 53.76-44.159-0.054-0.187-0.007-0.474-0.24-0.48-12.35 20.36-31.96 33.47-53.52 44.64zm46.56-41.04c-1.567 1.632-2.979 3.246-4.56 4.801-9.248 9.088-20.102 16.565-31.681 23.04-1.828 1.021-4.265 1.634-5.52 3.6 12.167-6.394 23.946-13.174 33.36-22.32 2.431-1.796 5.178-4.543 7.199-6.72 0.661-0.712 1.771-1.681 1.44-2.4h-0.24zm-312 33.12c-0.296-1.571 0.041-5.779-1.2-7.2 0.139 2.66 0.288 5.31 1.2 7.2zm11.76 2.4c14.591 7.866 30.31 15.027 47.04 19.92 38.91 11.379 91.224 14.072 135.6 7.439 16.34-2.441 31.69-6.032 45.84-10.8 4.721-1.59 9.5-2.972 13.44-5.76-45.458 20.03-114.11 24.068-170.4 13.92-30.206-5.445-56.175-15.535-77.28-29.04-0.014-0.146-0.036-0.284-0.24-0.24 0.366 1.52 3.453 3.18 6.004 4.56zm244.08 12c-0.824 1.406-2.127 2.882-2.159 4.56 4.03-5.328 6.725-11.995 9.359-18.72 0.013-0.413-0.185-0.615-0.479-0.72-1.78 5.33-4.12 10.45-6.72 14.88zm-239.28-4.08c12.229 6.382 25.694 12.487 40.32 16.08 20.245 4.973 42.224 9.629 64.32 10.56 11.176 0.472 22.25 0.852 33.601 0.48 23.165-0.759 45.145-3.801 65.52-8.4 10.167-2.295 20.173-4.828 28.8-8.88-26.763 8.879-58.082 16.103-93.359 16.8-11.847 0.234-23.903-0.396-35.76-0.96-23.096-1.1-44.18-5.483-63.6-10.56-19.729-5.157-36.771-13.569-51.84-22.561-0.053-0.187-0.201-0.278-0.48-0.239 3.377 2.9 7.854 5.26 12.484 7.68zm223.2-0.72c-1.443 0.455-3.312 0.274-4.32 1.68 7.222-1.741 15.178-4.82 22.319-7.44 0.014-0.412-0.185-0.615-0.479-0.72-5.35 2.35-11.58 4.6-17.52 6.48z" fill="#fff"/>
	<path d="m245.68 123.29c-0.091 0.757-0.758 0.648-1.2 0.96-3.417 2.412-6.797 4.737-10.319 7.2-2.464 1.722-5.348 3.27-8.16 4.56 6.42-4.39 12.49-9.12 19.68-12.72z"/>
	<path d="m113.2 130.01c-10.714 7.126-22.572 13.108-33.84 19.681-9.954 7.886-24.349 11.33-31.68 21.84-0.624 2.575-1.435 4.965-2.4 7.199-0.312-1.629 0.619-3.377 1.2-5.039 2.309-6.606 7.289-9.855 13.44-13.2 7.341-3.992 15.088-8.584 22.32-12.96 10.521-6.367 21.474-11.944 30.48-17.76 0.28-0.04 0.43 0.05 0.48 0.24z"/>
	<path d="m4.244 137.93c1.146 1.336 1.007 3.009 1.44 4.561 5.323 19.067 17.456 32.201 30.96 43.439 1.9 1.582 4.233 2.835 5.52 5.04-17.055-13.27-32.804-27.84-37.92-53.04z"/>
	<path d="m375.76 138.89c0.978 10.259-1.38 19.261-4.32 26.4-0.048-4.073-0.781-7.939-0.24-11.521 0.181-1.192 0.964-2.308 1.44-3.6 1.32-3.56 2.19-7.51 3.12-11.28zm-2.88 20.16c0.939-3.069 2.521-8.025 1.68-11.28-0.09 4.06-1.72 7.87-1.68 11.28z" fill="#9FA1A4"/>
	<path d="m374.56 147.77c0.841 3.255-0.74 8.211-1.68 11.28-0.04-3.41 1.59-7.22 1.68-11.28z"/>
	<path d="m369.76 148.73h0.72c-11.242 30.998-37.237 47.243-66.24 60.48 6.682-4.12 13.792-7.164 20.4-11.04 19.443-11.402 36.547-26.081 45.12-48.72v-0.72z"/>
	<path d="m86.804 149.45h0.72c20.811 12.229 48.985 21.73 80.16 24 39.321 2.862 78.653-3.352 107.28-16.08-28.934 14.734-71.141 19.49-113.28 16.08-14.231-1.152-28.093-4.698-40.56-8.4-12.608-3.743-24.165-9.151-33.84-14.88-0.292-0.11-0.489-0.31-0.476-0.72z"/>
	<path d="m12.884 153.77c0.388-0.067 0.413 0.228 0.72 0.24 4.492 7.188 10.149 13.211 15.6 19.44 2.414 1.648 4.403 3.739 6.72 5.52 2.22 1.706 4.538 3.519 6.24 5.76-11.632-8.45-21.629-18.53-29.28-30.96z"/>
	<path d="m364.24 156.17c0.233 0.007 0.187 0.294 0.24 0.48-12.455 20.185-31.19 34.089-53.76 44.159 21.56-11.17 41.17-24.28 53.52-44.64z"/>
	<path d="m357.52 159.77c0.331 0.72-0.779 1.688-1.44 2.4-2.021 2.177-4.769 4.924-7.199 6.72-9.414 9.146-21.193 15.927-33.36 22.32 1.255-1.966 3.691-2.578 5.52-3.6 11.579-6.475 22.433-13.952 31.681-23.04 1.581-1.555 2.992-3.169 4.56-4.801h0.24z"/>
	<path d="m368.08 162.17c0.794 0.923 0.794 5.077 0 6v-6z"/>
	<path d="m57.764 164.33c0.039-0.281 0.438-0.202 0.72-0.24 19.908 12.725 45.508 22.085 73.92 27.84 28.553 5.784 61.317 6.479 92.64 3.36 26.975-2.687 53.207-11.286 74.88-20.16-2.738 1.989-6.119 3.017-9.36 4.32-22.099 8.885-48.349 15.307-77.52 17.52-58.73 4.456-116.63-8.17-154.56-32.16-0.312-0.09-0.374-0.43-0.716-0.48z"/>
	<path d="m52.244 167.93c0.039-0.281 0.438-0.202 0.72-0.239 23.041 15.194 52.005 24.534 85.2 29.999 32.962 5.428 74.69 4.603 107.04-0.96 22.098-3.799 42.05-9.854 59.04-17.76-3.959 2.601-8.603 4.439-13.199 6.24-13.775 5.395-29.133 9.213-45.841 12.24-44.495 8.062-99.056 5.051-138.24-5.761-14.851-4.097-28.895-9.341-42-16.079-4.707-2.43-9.16-5.13-12.716-7.68z"/>
	<path d="m313.84 167.93c-2.67 1.972-6.258 4.303-9.36 5.04 2.88-1.93 5.82-3.79 9.36-5.04z"/>
	<path d="m363.28 169.13c0.545 0.256 0.092 1.509 0.24 2.16-0.76-0.05-0.55-1.77-0.24-2.16z"/>
	<path d="m16.964 169.61c4.918 5.882 10.17 11.43 16.08 16.319-0.107 0.693-1.813-0.213-1.92 0.48-0.274 2.3-1.667 6.947-0.72 11.76 0.164 0.831 0.996 2.222 1.68 2.88 13.353 12.854 34.562 24.016 54.24 29.76 1.998-2.272 1.436-10.118 0.48-13.68 9.428 2.732 18.102 6.218 28.08 8.4-1.598 5.281-4.148 9.611-6.48 14.159-5.308 1.697-11.997 0.852-17.76-0.72-7.98-2.176-15.806-5.404-23.28-8.64-14.335-6.206-26.997-14.757-37.92-25.681-4.946-4.945-11.673-11.77-12.48-19.199-0.687-6.36 0.305-9.89 0.004-15.84zm0.72 17.52c1.302-1.108 0.72-3.698 0.72-5.76v-6.72c-0.051-0.27-0.266-0.374-0.48-0.48-0.553 3.84-0.085 8.71-0.24 12.96zm7.44-0.96c-0.264-3.164-4.308-11.538-5.76-5.52-1.089 4.513 0.878 11.748 4.32 12.72 1.613-1.08 1.673-4.4 1.44-7.2zm1.2 12.72c0.4-5.28 0.4-12.239 0-17.52-0.462 4.86-0.946 10.99 0 17.52zm64.8 38.88c1.299-2.114 0.72-5.471 0.72-8.64v-9.36h-0.72v18zm-35.28-15.36c-0.15-0.729 0.307-2.067-0.24-2.4-0.218 0.34-0.683 2.46 0.24 2.4zm38.16 5.52c-2.011 8.418 7.872 13.636 11.76 7.44 2.08-8.77-8.188-14.32-11.756-7.44zm12.716 11.04c0.799-3.45 0.799-10.229 0-13.68v13.68zm4.56-6.72c-0.301-1.939 0.614-5.094-0.48-6.24-0.15 1.47-0.92 5.53 0.48 6.24z" fill="#8CC63F"/>
	<path d="m49.844 170.57c31.805 20.032 73.647 31.725 123.84 33.84 47.549 2.004 96.98-5.026 132-21.601-4.012 2.877-8.965 4.439-13.68 6.24-14.066 5.373-30.022 8.877-47.04 12-56.682 10.403-124.48 2.665-168.96-16.08-4.526-1.907-8.853-4.362-13.2-6.479-4.535-2.209-9.048-4.711-12.72-7.2-0.277-0.04-0.199-0.44-0.236-0.72z"/>
	<path d="m17.924 174.17c0.214 0.106 0.429 0.211 0.48 0.48v6.72c0 2.062 0.582 4.651-0.72 5.76 0.155-4.25-0.313-9.12 0.24-12.96z"/>
	<path d="m311.68 176.09c-1.28 0-1.4 1.16-2.88 0.96 0.27-0.85 2.77-2.24 2.88-0.96z"/>
	<path d="m48.884 180.65h0.72c23.868 15.977 55.611 25.833 90.72 31.439 35.386 5.651 79.091 3.963 113.04-1.44-34.296 6.983-75.649 7.138-111.36 2.16-36.16-5.039-68.071-15.592-92.64-31.439-0.292-0.11-0.489-0.31-0.476-0.72z"/>
	<path d="m21.284 181.37c2.312 1.473 3.038 6.312 1.92 9.12-2.311-1.34-2.766-6.11-1.92-9.12z" fill="#fff"/>
	<path d="m26.324 181.37c0.4 5.28 0.4 12.239 0 17.52-0.946-6.53-0.462-12.66 0-17.52z"/>
	<path d="m44.084 185.69c1.24 1.421 0.903 5.629 1.2 7.2-0.912-1.89-1.061-4.54-1.2-7.2z"/>
	<path d="m86.084 229.85c-14.734-4.89-30.652-11.792-42.48-20.88-3.962-3.044-8.545-5.989-11.52-9.359-1.69-1.915-0.585-9.629-0.24-12.48 0.279-0.039 0.427 0.053 0.48 0.24 12.236 10.52 28.308 20.282 46.08 26.88 1.816 0.674 6.523 1.632 7.44 2.88 1.902 2.59 0.021 8.56 0.24 12.72zm-30.24-13.92c-0.397-3.476 0.695-7.893-0.24-10.319-0.25 2.83-0.701 7.88 0.24 10.32z" fill="#5F6062"/>
	<path d="m51.044 190.73c0.204-0.044 0.226 0.094 0.24 0.24 21.104 13.505 47.074 23.595 77.28 29.04 56.292 10.148 124.94 6.11 170.4-13.92-3.94 2.788-8.72 4.17-13.44 5.76-14.149 4.768-29.5 8.358-45.84 10.8-44.376 6.633-96.69 3.939-135.6-7.439-16.73-4.893-32.449-12.054-47.04-19.92-2.547-1.38-5.634-3.04-5.996-4.56z"/>
	<path d="m342.64 191.93c-14.399 10.561-30.231 19.689-48.24 26.641-2.065 4.413-4.435 8.524-8.16 11.279 2.356-3.644 5.608-6.392 7.2-10.8-12.257 3.795-25.146 9.025-39.6 11.76-17.593 3.329-36.481 4.855-56.4 5.761-3.069 0.139-4.983-0.128-6.72-0.24 50.471-0.871 94.898-10.724 128.88-30.48 7.498-4.359 14.834-8.743 21.84-13.439 0.257-0.172 0.422-0.356 0.72-0.48h0.48z"/>
	<path d="m307.84 192.41c0.295 0.104 0.492 0.307 0.479 0.72-2.635 6.725-5.329 13.392-9.359 18.72 0.032-1.678 1.335-3.153 2.159-4.56 2.6-4.43 4.94-9.55 6.72-14.88z"/>
	<path d="m49.364 195.53c0.279-0.039 0.427 0.053 0.48 0.239 15.069 8.991 32.111 17.403 51.84 22.561 19.42 5.076 40.504 9.46 63.6 10.56 11.857 0.564 23.914 1.194 35.76 0.96 35.277-0.697 66.597-7.921 93.359-16.8-8.627 4.052-18.633 6.585-28.8 8.88-20.375 4.6-42.354 7.642-65.52 8.4-11.351 0.371-22.425-0.009-33.601-0.48-22.096-0.931-44.075-5.587-64.32-10.56-14.626-3.593-28.091-9.698-40.32-16.08-4.626-2.42-9.103-4.78-12.476-7.68z"/>
	<path d="m302.56 196.01c0.295 0.104 0.493 0.308 0.479 0.72-7.142 2.62-15.098 5.699-22.319 7.44 1.009-1.405 2.877-1.225 4.32-1.68 5.94-1.88 12.17-4.13 17.52-6.48z"/>
	<path d="m55.604 205.61c0.935 2.427-0.158 6.844 0.24 10.319-0.941-2.44-0.49-7.49-0.24-10.32z"/>
	<path d="m325.84 207.77c-8.711 5.85-19.48 9.641-29.76 13.92 1.117-1.837 3.72-2.036 5.76-2.88 1.934-0.799 3.966-1.579 5.52-2.64 6.463-2.258 12.073-5.367 17.76-8.4h0.72z"/>
	<path d="m314.32 215.69c-6.604 3.719-14.528 7.39-21.6 9.841 2.362-1.811 5.382-2.606 8.16-3.841 4.227-1.876 8.487-3.968 12.479-6h0.96z"/>
	<path d="m91.124 219.77h0.72v9.36c0 3.169 0.579 6.525-0.72 8.64v-18z"/>
	<path d="m55.604 220.01c0.547 0.333 0.089 1.671 0.24 2.4-0.923 0.06-0.458-2.06-0.24-2.4z"/>
	<path d="m287.44 224.57c-2.913 2.017-6.61 2.669-10.08 3.84-11.503 3.882-23.936 7.169-37.199 8.88 16.49-3.35 33.12-7.85 47.28-12.72z"/>
	<path d="m106.72 225.29c0.799 3.45 0.799 10.229 0 13.68v-13.68z"/>
	<path d="m110.8 226.01c1.094 1.146 0.179 4.301 0.48 6.24-1.4-0.71-0.63-4.77-0.48-6.24z"/>
	<path d="m118.48 226.73c11.836 2.484 23.823 4.817 36.72 6.24 0.164 0.645-1.356 1.44-1.68 3.12-0.832 4.312 0.866 9.317 3.36 10.56-9.888-1.216-20.032-2.81-29.76-5.039-1.989-0.456-4.584-0.989-5.52-1.681-3.4-2.52-2.63-7.95-3.12-13.2zm30.24 6.48c-9.119-1.004-20.068-2.875-28.32-4.8-0.051-0.29-0.267-0.147-0.48 0 9.314 3.434 22.271 4.411 32.64 6-0.72-1.25-2.65-1.07-3.84-1.2zm-1.68 5.76c-4.405-0.531-9.006-1.087-13.44-1.92-4.721-0.887-9.408-2.765-13.44-2.64 9.876 2.571 20.453 4.727 31.2 5.76-1.17-0.9-2.91-1.03-4.32-1.2zm0.96 3.6c-3.006-0.391-6.211-1.46-9.36-1.921-3.823-0.559-7.038-0.809-10.56-1.68-2.384-0.589-4.541-2.001-6.72-1.439 9.276 2.883 19.808 4.512 30.48 6-0.84-1.55-2.5-0.79-3.84-0.96zm-5.28 0.96c-3.265-0.526-6.4-1.37-9.84-1.92-3.588-0.575-6.976-2.548-10.08-2.16 9.36 2.88 19.725 4.755 30.72 6-3.21-1.46-7.09-1.33-10.8-1.92z" fill="#9FA1A4"/>
	<path d="m99.524 235.61v-6.721c-1.096 1.225-0.178 4.462-0.48 6.48-2.121-0.909-4.179-5.333-2.16-7.44 3.108-3.246 9.257 3.716 6 7.44-0.95 0.3-2.24 0.81-3.356 0.24zm-1.68-3.84c0.462-0.637 0.277-2.23-0.24-2.64-0.306 0.48-0.562 2.51 0.24 2.64zm3.356 2.64c0.901-0.337 1.025-2.954 0-3.12v3.12z" fill="#fff"/>
	<path d="m152.56 234.41c-10.369-1.589-23.326-2.566-32.64-6 0.213-0.147 0.429-0.29 0.48 0 8.251 1.925 19.201 3.796 28.32 4.8 1.19 0.13 3.12-0.05 3.84 1.2z"/>
	<path d="m284.32 228.89c-2.705 1.743-5.978 2.348-9.12 3.36-10.581 3.408-22.8 6.762-35.52 8.64 15.007-3.793 30.727-6.873 44.16-12.24 0.28-0.04 0.43 0.05 0.48 0.24z"/>
	<path d="m97.604 229.13c0.517 0.409 0.702 2.003 0.24 2.64-0.802-0.13-0.546-2.16-0.24-2.64z"/>
	<path d="m101.2 231.29c1.025 0.166 0.901 2.783 0 3.12v-3.12z"/>
	<path d="m160 233.69c7.586-0.084 16.351 1.134 23.52 0.96-5.302 0.205-4.905 13.055-0.24 13.681-6.762 0.363-15.286-0.39-22.32-1.2 3.51-2.22 2.89-12.19-0.96-13.44zm5.04 1.68c4.301 0.603 8.798 1.068 13.68 0.479-3.92-0.43-10.06-0.83-13.68-0.48zm13.68 6.48c-4.72-0.31-9.465-0.51-13.68-0.72 3.88 0.99 9.63 1.65 13.68 0.72zm0 3.36c-4.526-0.274-8.781-0.819-13.68-0.72 3.41 1.09 10.42 1.07 13.68 0.72zm-11.28 1.92c3.924 0.377 9.413 0.771 12 0-5.188-0.012-9.677-0.724-14.64-0.96 0.36 1.07 1.73 0.87 2.64 0.96z" fill="#9FA1A4"/>
	<path d="m151.36 240.17c-10.747-1.033-21.324-3.188-31.2-5.76 4.032-0.125 8.719 1.753 13.44 2.64 4.434 0.833 9.035 1.389 13.44 1.92 1.41 0.17 3.15 0.3 4.32 1.2z"/>
	<path d="m156.4 234.17c6.195-2.036 7.983 11.156 3.6 12-3.815 0.734-5.311-4.003-5.28-7.44 0.02-2.17-0.35-3.89 1.68-4.56zm-0.48 6.48c1.562-0.009 4.809 1.481 5.52 0-2.04 0.42-4.52-0.94-5.52 0zm0.72 3.36c0.969 0.476 3.369 0.785 4.56 0.24-0.99-0.41-3.7-1.25-4.56-0.24z" fill="#8CC63F"/>
	<path d="m178.72 235.85c-4.882 0.589-9.379 0.123-13.68-0.479 3.62-0.35 9.76 0.05 13.68 0.48z"/>
	<path d="m187.84 237.53c0.412 2.964 1.304 7.674-0.24 9.359-1.497 1.636-4.914 0.763-6-0.72-1.431-1.954-1.311-8.308 0-9.6 1.61-1.59 4.97-0.38 6.24 0.96zm-4.08 4.32c0.002 1.249 3.21 0.848 3.6 0.24-0.52-0.73-2.14 0-3.6-0.24zm-0.48 3.84c1.649-0.483 4.251 0.944 4.56-0.479-1.39 0.28-3.95-0.6-4.56 0.48z" fill="#8CC63F"/>
	<path d="m236.08 241.61c-0.877 0.379-2.579-0.438-3.601 0.239 0.151 1.18 1.295-0.125 2.16 0.24-1.488 1.32-4.269 0.448-5.04-0.96-1.01-7.71 11.47-5.52 6.48 0.48zm-4.32-2.64c1.273-0.086 2.692-0.027 3.12-0.96-1.29 0.06-2.98-0.27-3.12 0.96z" fill="#8CC63F"/>
	<path d="m151.84 243.53c-10.672-1.488-21.204-3.117-30.48-6 2.179-0.562 4.335 0.851 6.72 1.439 3.522 0.871 6.737 1.121 10.56 1.68 3.149 0.461 6.354 1.53 9.36 1.921 1.34 0.17 3-0.59 3.84 0.96z"/>
	<path d="m216.64 244.25c-0.796-0.196-3.049-0.359-4.32 0.24-4.854-4.343 5.197-9.298 6.48-4.561 0.62 2.25-1 3.28-2.16 4.32zm-2.88-3.36c0.88 0.31 3.19 0.217 3.84-0.479-1.1-0.15-3.11-0.07-3.84 0.48z" fill="#8CC63F"/>
	<path d="m234.88 238.01c-0.428 0.933-1.847 0.874-3.12 0.96 0.14-1.23 1.83-0.9 3.12-0.96z"/>
	<path d="m153.52 245.45c-10.995-1.245-21.359-3.12-30.72-6 3.104-0.388 6.492 1.585 10.08 2.16 3.439 0.55 6.575 1.394 9.84 1.92 3.71 0.59 7.59 0.46 10.8 1.92z"/>
	<path d="m226.48 239.45c-0.705 0.895-2.735 0.465-4.08 0.72 0.57-0.88 3.08-1.08 4.08-0.72z"/>
	<path d="m118.96 240.65c-1.668 0.917-6.283 0.706-7.44-0.479 1.68 0.03 4.64 0.77 7.44 0.48z"/>
	<path d="m161.44 240.65c-0.711 1.481-3.958-0.009-5.52 0 1-0.94 3.48 0.42 5.52 0z"/>
	<path d="m217.6 240.41c-0.649 0.696-2.96 0.789-3.84 0.479 0.73-0.55 2.74-0.63 3.84-0.48z"/>
	<path d="m209.2 241.13c-5.556 1.102-12.537 1.325-18.239 1.2 1.943-1.326 4.716-0.695 7.2-0.72 3.62-0.04 7.29-0.63 11.04-0.48z"/>
	<path d="m165.04 241.13c4.215 0.21 8.96 0.41 13.68 0.72-4.05 0.93-9.8 0.27-13.68-0.72z"/>
	<path d="m187.36 242.09c-0.39 0.607-3.598 1.009-3.6-0.24 1.46 0.24 3.08-0.49 3.6 0.24z"/>
	<path d="m226.72 242.81c-0.545 1.056-2.568 0.632-4.08 0.721 0.8-0.85 2.66-0.95 4.08-0.72z"/>
	<path d="m161.2 244.25c-1.191 0.545-3.591 0.235-4.56-0.24 0.86-1.01 3.57-0.17 4.56 0.24z"/>
	<path d="m165.04 244.49c4.899-0.1 9.154 0.445 13.68 0.72-3.26 0.35-10.27 0.37-13.68-0.72z"/>
	<path d="m208.96 244.49c-1.267 1.374-3.783 0.633-5.761 0.72-4.274 0.188-9.329 1.162-12.96 0 7.38 0.12 12.54-0.69 18.72-0.72z"/>
	<path d="m187.84 245.21c-0.309 1.424-2.911-0.004-4.56 0.479 0.61-1.08 3.17-0.2 4.56-0.48z"/>
	<path d="m164.8 246.17c4.963 0.236 9.452 0.948 14.64 0.96-2.587 0.771-8.076 0.377-12 0-0.91-0.09-2.28 0.11-2.64-0.96z"/>
	<path d="m370.48 155.93v12c-4.035 2.925-8.55 5.37-12.72 8.16 1.143-3.617 4.271-6.508 6.479-9.84 2.26-3.4 3.77-7.21 6.24-10.32zm-2.4 12.24c0.794-0.923 0.794-5.077 0-6v6zm-4.56 3.12c-0.148-0.651 0.305-1.904-0.24-2.16-0.31 0.39-0.52 2.11 0.24 2.16z" fill="#9FA1A4"/>
	<path d="m187.6 248.57c-0.325-0.608 1.351-1.386 1.68-2.881 0.924-4.193-0.102-10.651-4.08-10.56 1.274-0.854 3.457-0.205 5.28-0.24 69.385-1.341 127.3-19.573 163.44-56.16-25.075 37.018-66.843 58.225-121.44 66.48-13.93 2.1-30.85 3.97-44.88 3.36zm90.72-14.88c0.146-0.014 0.284-0.035 0.24-0.239-14.225 3.615-27.822 7.857-43.439 10.08 1.461-1.434 3.292-2.661 3.119-5.04-0.34-4.704-8.124-3.979-9.6-0.24v3.36c0.732 1.268 2.186 1.813 3.6 2.399-5.828 0.854-11.575 1.758-17.04 1.92 3.025-0.713 5.241-3.045 4.32-6.96-3.189-4.344-11.738-0.442-8.88 5.521 1.055 0.705 2.313 1.206 3.6 1.68-7.059 0.938-15.575 0.574-22.8 1.44 32.04 0.32 60.38-5.48 86.88-13.92zm63.84-41.76c-0.298 0.124-0.463 0.309-0.72 0.48-7.006 4.696-14.342 9.08-21.84 13.439-33.981 19.757-78.409 29.609-128.88 30.48 1.736 0.112 3.65 0.379 6.72 0.24 19.919-0.905 38.808-2.432 56.4-5.761 14.454-2.734 27.343-7.965 39.6-11.76-1.592 4.408-4.844 7.156-7.2 10.8 3.726-2.755 6.095-6.866 8.16-11.279 18.009-6.951 33.841-16.08 48.24-26.641h-0.48zm-17.04 15.84c-5.687 3.033-11.297 6.143-17.76 8.4-1.554 1.061-3.586 1.841-5.52 2.64-2.04 0.844-4.643 1.043-5.76 2.88 10.279-4.279 21.049-8.07 29.76-13.92h-0.72zm-11.76 7.92c-3.992 2.032-8.253 4.124-12.479 6-2.778 1.234-5.798 2.03-8.16 3.841 7.071-2.451 14.996-6.122 21.6-9.841h-0.96zm-73.2 21.6c13.264-1.711 25.696-4.998 37.199-8.88 3.47-1.171 7.167-1.823 10.08-3.84-14.16 4.87-30.79 9.37-47.28 12.72zm43.68-8.64c-13.434 5.367-29.153 8.447-44.16 12.24 12.72-1.878 24.938-5.231 35.52-8.64 3.143-1.013 6.415-1.617 9.12-3.36-0.05-0.19-0.2-0.28-0.48-0.24zm-61.44 11.52c1.345-0.255 3.375 0.175 4.08-0.72-1-0.36-3.51-0.16-4.08 0.72zm-24.24 1.44c-2.484 0.024-5.257-0.606-7.2 0.72 5.702 0.125 12.684-0.099 18.239-1.2-3.75-0.15-7.42 0.44-11.04 0.48zm24.48 1.92c1.512-0.089 3.535 0.335 4.08-0.721-1.42-0.23-3.28-0.13-4.08 0.72zm-32.4 1.68c3.631 1.162 8.686 0.188 12.96 0 1.978-0.087 4.494 0.654 5.761-0.72-6.18 0.03-11.34 0.84-18.72 0.72z" fill="#9FA1A4"/>
	<path d="m37.604 190.25c7.385 4.854 15.735 10.825 24.48 15.12-9.076-3.17-16.888-9.68-24.48-15.12z" fill="#fff"/>
	<path d="m100.24 226.01c-4.242-0.672-5.442 3.815-5.04 6.24-1.165-3.87 1.012-7.59 5.04-6.24z" fill="#fff"/>
	<path d="m105.76 235.37c-3.888 6.195-13.771 0.978-11.76-7.44 3.572-6.88 13.84-1.33 11.76 7.44zm-10.556-3.12c-0.402-2.425 0.798-6.912 5.04-6.24-4.028-1.35-6.205 2.37-5.036 6.24zm7.676 3.12c3.257-3.725-2.892-10.687-6-7.44-2.019 2.107 0.039 6.531 2.16 7.44 0.302-2.019-0.616-5.256 0.48-6.48v6.721c1.12 0.57 2.41 0.06 3.36-0.24zm-4.316 0.96c2.192 2.034 7.298 0.363 6-3.12 0.6 3.69-4.896 4-5.996 3.12z"/>
	<path d="m117.52 226.97c-0.264 6.664 0.929 11.871 4.56 14.641-4.737 2.773-12.43 4.642-19.92 3.119 6.451 0.103 14.585 0.104 18.24-3.359-1.975-0.031-3.537 1.61-5.76 2.16-4.555 1.126-9.895 0.73-15.12 0-1.118-0.212 0.162 0.791-0.48 0.72-8.776-1.704-16.247-4.713-23.52-7.92 9.046 1.91 19.359 8.838 31.68 6.24 6.03-1.27 6.59-11.5 10.32-15.6zm-6 13.2c1.157 1.186 5.772 1.396 7.44 0.479-2.8 0.29-5.76-0.45-7.44-0.48z" fill="#9FA1A4"/>
	<path d="m104.56 233.21c1.298 3.483-3.808 5.154-6 3.12 1.104 0.88 6.6 0.57 6-3.12z" fill="#fff"/>
	<path d="m371.44 168.65c-3.78 2.171-7.637 5.106-11.52 7.439-1.51 0.907-3.518 1.382-4.561 2.64-3.067 3.7-5.7 7.518-8.64 11.04-20.414 24.464-49.458 41.573-85.68 50.641-10.416 2.606-21.172 5.304-32.4 6.72-34.628 4.368-73.695 3.166-104.64-5.52-14.054 9.873-35.26 1.486-48.24-4.08-13.277-5.694-24.19-12.366-35.28-20.4-5.414-3.922-10.155-7.962-14.88-12.96-3.704-3.917-9.848-10.97-10.8-16.8-1.062-6.507 1.387-14.63-0.24-20.88-0.371-1.426-1.905-3.272-2.88-4.8-2.974-4.657-5.76-9.338-7.68-15.12-2.461-7.41-4.627-15.415-3.84-26.64 0.403-5.752 1.344-11.549 2.16-17.04 0.773-5.205 2.444-10.327 4.08-14.88 3.304-9.192 7.79-17.773 13.44-24.72 11.452-14.08 24.688-26.192 41.28-34.8 8.739-4.534 17.061-8.542 26.16-12 9.268-3.522 19.363-5.481 29.76-8.16 10.317-2.658 20.953-4.291 32.16-6 11.032-1.683 22.787-1.579 35.28-2.16 14.562-0.677 30.02 0.807 43.681 2.64 28.086 3.769 50.604 10.701 71.76 20.88 10.554 5.079 19.356 11.396 28.8 17.52 18.099 11.737 35.021 27.551 42.96 49.68 4.184 11.661 5.581 26.248 5.279 39.6-0.148 6.602 0.364 13.514-0.479 20.16-0.81 6.42-2.94 12.1-5.04 18zm-187.92-167.52c-23.695 0-45.111 3.464-65.28 8.16-10.381 2.417-20.309 4.404-29.52 7.68-13.189 4.691-26.983 10.894-37.44 18.48-3.645 2.644-7.32 5.139-10.8 7.92-6.521 5.211-12.437 12.005-18.24 18.96-11.068 13.264-20.525 32.786-19.92 53.76 0.648 22.459 12.159 38.103 23.76 50.64 11.812 12.766 27.967 22.748 44.16 30.48 16.806 8.025 35.715 14.588 55.92 18.72 20.966 4.288 45.099 5.761 67.92 5.76 23.422 0 45.368-5.021 63.359-11.04 9.132-3.055 17.723-7.271 26.4-10.8 8.882-3.612 17.274-7.751 25.439-12 30.615-15.93 70.748-33.185 65.04-82.56-1.218-10.534-5.119-19.333-9.84-27.36-9.208-15.656-22.922-27.203-37.68-36.72-7.443-4.799-14.918-10.217-23.04-14.4-16.318-8.403-34.708-15.43-54.96-19.68-20.199-4.239-44.513-6.636-64.8-6-0.16 0.002-0.32-0.003-0.48-0.003zm-182.16 118.32c-0.983 15.387 2.708 27.268 8.64 37.68 9.145 16.051 21.746 28.099 36.48 37.68 7.535 4.9 15.278 9.373 23.52 13.681 16.519 8.634 35.61 14.209 55.68 18.479 41.265 8.781 93.173 9.046 133.44-0.72 40.037-9.71 73.731-25.396 96.96-51.6 11.599-13.083 21.266-30.231 19.921-54-1.279 5.206-2.031 9.943-3.601 14.4-4.823 13.702-13.459 22.75-23.76 30.96-6.71 5.348-14.572 9.336-22.561 13.681-7.965 4.331-15.697 9.114-23.52 12.96-25.101 12.337-50.168 22.222-81.36 27.6-20.596 3.551-44.966 3.407-66.719 0.72-10.988-1.357-21.635-2.643-31.68-4.8-30.194-6.485-55.472-17.193-77.04-31.92-21.572-14.729-40.471-33.854-44.16-65.28-0.014-0.146-0.036-0.284-0.24-0.24 0.004 0.24 0.004 0.48 0.004 0.72zm371.28 30.72c-0.477 1.292-1.26 2.407-1.44 3.6-0.541 3.581 0.192 7.447 0.24 11.521 2.94-7.14 5.298-16.142 4.32-26.4-0.93 3.77-1.8 7.72-3.12 11.28zm-8.4 16.08c-2.209 3.332-5.337 6.223-6.479 9.84 4.17-2.79 8.685-5.235 12.72-8.16v-12c-2.47 3.11-3.98 6.92-6.24 10.32zm-347.28 19.2c0.807 7.43 7.534 14.254 12.48 19.199 10.923 10.924 23.585 19.475 37.92 25.681 7.474 3.235 15.299 6.464 23.28 8.64 5.764 1.571 12.453 2.417 17.76 0.72 2.332-4.548 4.882-8.878 6.48-14.159-9.978-2.183-18.652-5.668-28.08-8.4 0.956 3.562 1.518 11.407-0.48 13.68-19.678-5.744-40.887-16.906-54.24-29.76-0.684-0.658-1.517-2.049-1.68-2.88-0.947-4.812 0.446-9.46 0.72-11.76 0.106-0.693 1.813 0.213 1.92-0.48-5.91-4.89-11.162-10.438-16.08-16.319 0.305 5.95-0.687 9.48 0.004 15.84zm215.52 59.76c54.598-8.256 96.365-29.463 121.44-66.48-36.137 36.587-94.056 54.819-163.44 56.16-1.823 0.035-4.005-0.613-5.28 0.24 3.978-0.092 5.003 6.366 4.08 10.56-0.329 1.495-2.004 2.272-1.68 2.881 14.03 0.61 30.95-1.26 44.88-3.36zm-146.64-28.08c-0.917-1.248-5.624-2.206-7.44-2.88-17.772-6.598-33.844-16.36-46.08-26.88-0.053-0.188-0.201-0.279-0.48-0.24-0.345 2.852-1.45 10.565 0.24 12.48 2.975 3.37 7.558 6.315 11.52 9.359 11.828 9.088 27.746 15.99 42.48 20.88-0.219-4.16 1.662-10.13-0.24-12.72zm-23.76-11.76c-8.745-4.295-17.095-10.266-24.48-15.12 7.592 5.44 15.404 11.95 24.48 15.12zm59.516 34.56c0.936 0.691 3.531 1.225 5.52 1.681 9.728 2.229 19.872 3.823 29.76 5.039-2.495-1.242-4.192-6.248-3.36-10.56 0.324-1.68 1.844-2.476 1.68-3.12-12.897-1.423-24.884-3.756-36.72-6.24 0.49 5.25-0.28 10.68 3.12 13.2zm-14.4 2.64c-12.321 2.598-22.633-4.33-31.68-6.24 7.273 3.207 14.744 6.216 23.52 7.92 0.642 0.071-0.638-0.932 0.48-0.72 5.225 0.73 10.564 1.126 15.12 0 2.223-0.55 3.786-2.191 5.76-2.16-3.655 3.464-11.789 3.462-18.24 3.359 7.49 1.522 15.184-0.346 19.92-3.119-3.631-2.77-4.824-7.977-4.56-14.641-3.73 4.1-4.29 14.33-10.32 15.6zm53.76 4.56c7.034 0.811 15.558 1.563 22.32 1.2-4.666-0.626-5.062-13.476 0.24-13.681-7.169 0.174-15.934-1.044-23.52-0.96 3.85 1.25 4.47 11.22 0.96 13.44zm-6.24-8.4c-0.031 3.438 1.465 8.175 5.28 7.44 4.383-0.844 2.595-14.036-3.6-12-2.03 0.67-1.66 2.39-1.68 4.56zm26.88-2.16c-1.311 1.292-1.431 7.646 0 9.6 1.086 1.482 4.503 2.355 6 0.72 1.544-1.686 0.652-6.396 0.24-9.359-1.27-1.34-4.63-2.55-6.24-0.96z"/>
	<path d="m23.684 193.37c-3.442-0.972-5.41-8.207-4.32-12.72 1.453-6.019 5.497 2.355 5.76 5.52 0.233 2.8 0.173 6.12-1.44 7.2zm-0.48-2.88c1.117-2.809 0.392-7.647-1.92-9.12-0.846 3.01-0.391 7.78 1.92 9.12z"/>
	<path d="m191.44 247.61c7.225-0.866 15.741-0.502 22.8-1.44-1.286-0.474-2.545-0.975-3.6-1.68-2.858-5.963 5.69-9.864 8.88-5.521 0.921 3.915-1.295 6.247-4.32 6.96 5.465-0.162 11.212-1.065 17.04-1.92-1.414-0.586-2.867-1.132-3.6-2.399v-3.36c1.476-3.738 9.26-4.464 9.6 0.24 0.173 2.379-1.658 3.606-3.119 5.04 15.617-2.223 29.215-6.465 43.439-10.08 0.044 0.204-0.094 0.226-0.24 0.239-26.5 8.44-54.84 14.24-86.88 13.92zm38.16-6.48c0.771 1.408 3.552 2.28 5.04 0.96-0.865-0.365-2.009 0.939-2.16-0.24 1.021-0.678 2.724 0.14 3.601-0.239 4.99-6-7.49-8.19-6.48-0.48zm-10.8-1.2c-1.283-4.737-11.334 0.218-6.48 4.561 1.271-0.6 3.524-0.437 4.32-0.24 1.16-1.04 2.78-2.07 2.16-4.32z"/>
</g>
<metadata><rdf:RDF><cc:Work><dc:format>image/svg+xml</dc:format><dc:type rdf:resource="http://purl.org/dc/dcmitype/StillImage"/><cc:license rdf:resource="http://creativecommons.org/licenses/publicdomain/"/><dc:publisher><cc:Agent rdf:about="http://openclipart.org/"><dc:title>Openclipart</dc:title></cc:Agent></dc:publisher></cc:Work><cc:License rdf:about="http://creativecommons.org/licenses/publicdomain/"><cc:permits rdf:resource="http://creativecommons.org/ns#Reproduction"/><cc:permits rdf:resource="http://creativecommons.org/ns#Distribution"/><cc:permits rdf:resource="http://creativecommons.org/ns#DerivativeWorks"/></cc:License></rdf:RDF></metadata></svg>
